<svg width="79" height="21" viewBox="0 0 79 21" fill="none" xmlns="http://www.w3.org/2000/svg">
<path d="M6.84659 5.09091V7.07955H0.397727V5.09091H6.84659ZM2.00994 16V4.06108C2.00994 3.32718 2.16146 2.71638 2.46449 2.22869C2.77225 1.741 3.18419 1.37642 3.70028 1.13494C4.21638 0.893465 4.7893 0.772726 5.41903 0.772726C5.86411 0.772726 6.25947 0.808238 6.60511 0.879261C6.95076 0.950284 7.20644 1.0142 7.37216 1.07102L6.8608 3.05966C6.75189 3.02651 6.61458 2.99337 6.44886 2.96023C6.28314 2.92235 6.09848 2.90341 5.89489 2.90341C5.41667 2.90341 5.07813 3.01941 4.87926 3.25142C4.68513 3.47869 4.58807 3.8054 4.58807 4.23153V16H2.00994ZM13.2085 16.2131C12.1431 16.2131 11.2198 15.9787 10.4386 15.5099C9.65732 15.0412 9.05125 14.3854 8.62038 13.5426C8.19425 12.6998 7.98118 11.715 7.98118 10.5881C7.98118 9.46117 8.19425 8.47396 8.62038 7.62642C9.05125 6.77888 9.65732 6.12074 10.4386 5.65199C11.2198 5.18324 12.1431 4.94886 13.2085 4.94886C14.2738 4.94886 15.1971 5.18324 15.9783 5.65199C16.7596 6.12074 17.3633 6.77888 17.7894 7.62642C18.2203 8.47396 18.4357 9.46117 18.4357 10.5881C18.4357 11.715 18.2203 12.6998 17.7894 13.5426C17.3633 14.3854 16.7596 15.0412 15.9783 15.5099C15.1971 15.9787 14.2738 16.2131 13.2085 16.2131ZM13.2227 14.1534C13.8003 14.1534 14.2833 13.9948 14.6715 13.6776C15.0598 13.3556 15.3486 12.9247 15.538 12.3849C15.7321 11.8452 15.8292 11.2438 15.8292 10.581C15.8292 9.91335 15.7321 9.30966 15.538 8.76989C15.3486 8.22538 15.0598 7.79214 14.6715 7.47017C14.2833 7.1482 13.8003 6.98722 13.2227 6.98722C12.6308 6.98722 12.1384 7.1482 11.7454 7.47017C11.3571 7.79214 11.0659 8.22538 10.8718 8.76989C10.6824 9.30966 10.5877 9.91335 10.5877 10.581C10.5877 11.2438 10.6824 11.8452 10.8718 12.3849C11.0659 12.9247 11.3571 13.3556 11.7454 13.6776C12.1384 13.9948 12.6308 14.1534 13.2227 14.1534ZM29.2401 7.97443L26.8963 8.23011C26.83 7.99337 26.714 7.77083 26.5483 7.5625C26.3873 7.35417 26.1695 7.18608 25.8949 7.05824C25.6203 6.9304 25.2841 6.86648 24.8864 6.86648C24.3513 6.86648 23.9015 6.98248 23.5369 7.21449C23.1771 7.4465 22.9995 7.74716 23.0043 8.11648C22.9995 8.43371 23.1155 8.69176 23.3523 8.89062C23.5938 9.08949 23.9915 9.25284 24.5455 9.38068L26.4062 9.77841C27.4384 10.0009 28.2055 10.3537 28.7074 10.8366C29.214 11.3196 29.4697 11.9517 29.4744 12.733C29.4697 13.4195 29.2685 14.0256 28.8707 14.5511C28.4777 15.072 27.9309 15.4792 27.2301 15.7727C26.5294 16.0663 25.7244 16.2131 24.8153 16.2131C23.4801 16.2131 22.4053 15.9337 21.5909 15.375C20.7765 14.8116 20.2912 14.0279 20.1349 13.0241L22.642 12.7827C22.7557 13.2751 22.9972 13.6468 23.3665 13.8977C23.7358 14.1487 24.2164 14.2741 24.8082 14.2741C25.419 14.2741 25.9091 14.1487 26.2784 13.8977C26.6525 13.6468 26.8395 13.3366 26.8395 12.9673C26.8395 12.6548 26.7188 12.3968 26.4773 12.1932C26.2405 11.9896 25.8712 11.8333 25.3693 11.7244L23.5085 11.3338C22.4621 11.116 21.688 10.7491 21.1861 10.233C20.6842 9.71212 20.4356 9.05398 20.4403 8.25852C20.4356 7.58617 20.6179 7.00379 20.9872 6.51136C21.3613 6.0142 21.8797 5.63068 22.5426 5.3608C23.2102 5.08617 23.9796 4.94886 24.8509 4.94886C26.1293 4.94886 27.1354 5.22112 27.8693 5.76562C28.608 6.31013 29.0649 7.0464 29.2401 7.97443ZM37.0419 5.09091V7.07955H30.7706V5.09091H37.0419ZM32.3189 2.47727H34.8899V12.7188C34.8899 13.0644 34.942 13.3295 35.0462 13.5142C35.1551 13.6941 35.2971 13.8172 35.4723 13.8835C35.6475 13.9498 35.8416 13.983 36.0547 13.983C36.2157 13.983 36.3625 13.9711 36.495 13.9474C36.6323 13.9238 36.7365 13.9025 36.8075 13.8835L37.2408 15.8935C37.1035 15.9408 36.907 15.9929 36.6513 16.0497C36.4003 16.1065 36.0926 16.1397 35.728 16.1491C35.084 16.1681 34.504 16.071 33.9879 15.858C33.4718 15.6402 33.0623 15.304 32.7592 14.8494C32.4609 14.3949 32.3142 13.8267 32.3189 13.1449V2.47727ZM43.9045 16.2131C42.8107 16.2131 41.8661 15.9858 41.0707 15.5312C40.2799 15.072 39.6715 14.4233 39.2454 13.5852C38.8192 12.7424 38.6062 11.7505 38.6062 10.6094C38.6062 9.48722 38.8192 8.50237 39.2454 7.65483C39.6763 6.80256 40.2776 6.13968 41.0494 5.66619C41.8211 5.18797 42.7279 4.94886 43.7695 4.94886C44.4419 4.94886 45.0763 5.05777 45.6729 5.27557C46.2743 5.48864 46.8046 5.82008 47.2638 6.26989C47.7279 6.7197 48.0924 7.29261 48.3576 7.98864C48.6228 8.67992 48.7553 9.50379 48.7553 10.4602V11.2486H39.8136V9.51562H46.2908C46.2861 9.0232 46.1796 8.58523 45.9712 8.2017C45.7629 7.81345 45.4717 7.50805 45.0977 7.28551C44.7283 7.06297 44.2975 6.9517 43.805 6.9517C43.2795 6.9517 42.8178 7.07955 42.4201 7.33523C42.0224 7.58617 41.7122 7.91761 41.4897 8.32955C41.2719 8.73674 41.1606 9.18419 41.1559 9.67188V11.1847C41.1559 11.8191 41.2719 12.3636 41.5039 12.8182C41.7359 13.268 42.0603 13.6136 42.4769 13.8551C42.8936 14.0919 43.3813 14.2102 43.94 14.2102C44.314 14.2102 44.6526 14.1581 44.9556 14.054C45.2586 13.9451 45.5214 13.7865 45.744 13.5781C45.9665 13.3698 46.1346 13.1117 46.2482 12.804L48.6488 13.0739C48.4973 13.7083 48.2085 14.2623 47.7823 14.7358C47.3609 15.2045 46.8211 15.5691 46.163 15.8295C45.5049 16.0852 44.752 16.2131 43.9045 16.2131ZM50.9304 16V5.09091H53.4233V6.90909H53.5369C53.7358 6.27936 54.0767 5.79403 54.5597 5.45312C55.0473 5.10748 55.6037 4.93466 56.2287 4.93466C56.3707 4.93466 56.5294 4.94176 56.7045 4.95597C56.8845 4.96544 57.0336 4.98201 57.152 5.00568V7.37074C57.0431 7.33286 56.8703 7.29972 56.6335 7.27131C56.4015 7.23816 56.1766 7.22159 55.9588 7.22159C55.4901 7.22159 55.0687 7.32339 54.6946 7.52699C54.3253 7.72585 54.0341 8.00284 53.821 8.35795C53.608 8.71307 53.5014 9.12263 53.5014 9.58665V16H50.9304ZM61.4311 1.45455V16H58.8601V1.45455H61.4311ZM65.6729 20.0909C65.3226 20.0909 64.9982 20.0625 64.6999 20.0057C64.4064 19.9536 64.172 19.892 63.9968 19.821L64.5934 17.8182C64.9674 17.9271 65.3013 17.9792 65.5948 17.9744C65.8884 17.9697 66.1464 17.8774 66.369 17.6974C66.5962 17.5223 66.788 17.2287 66.9442 16.8168L67.1644 16.2273L63.2085 5.09091H65.9357L68.4499 13.3295H68.5636L71.0849 5.09091H73.8192L69.4513 17.321C69.2478 17.8987 68.9779 18.3935 68.6417 18.8054C68.3055 19.2221 67.8936 19.5393 67.4059 19.7571C66.9229 19.9796 66.3453 20.0909 65.6729 20.0909ZM76.4986 16.1562C76.0677 16.1562 75.6984 16.0047 75.3906 15.7017C75.0829 15.3987 74.9313 15.0294 74.9361 14.5938C74.9313 14.1676 75.0829 13.803 75.3906 13.5C75.6984 13.197 76.0677 13.0455 76.4986 13.0455C76.9152 13.0455 77.2775 13.197 77.5852 13.5C77.8977 13.803 78.0563 14.1676 78.0611 14.5938C78.0563 14.8826 77.9806 15.1454 77.8338 15.3821C77.6918 15.6188 77.5024 15.8082 77.2656 15.9503C77.0336 16.0876 76.7779 16.1562 76.4986 16.1562Z" fill="#0010F7"/>
</svg>
